NotoSansPahawhHmong-Regular.ufo
<glyph name="u16B00" format="2">
  <advance width="659"/>
  <unicode hex="16B00"/>
  <outline>
    <contour>
      <point x="291" y="0" type="line"/>
      <point x="372" y="0" type="line"/>
      <point x="567" y="433" type="line" smooth="yes"/>
      <point x="592" y="489"/>
      <point x="599" y="526"/>
      <point x="599" y="556" type="curve" smooth="yes"/>
      <point x="599" y="595"/>
      <point x="579" y="725"/>
      <point x="399" y="725" type="curve" smooth="yes"/>
      <point x="299" y="725"/>
      <point x="250" y="670"/>
      <point x="250" y="602" type="curve" smooth="yes"/>
      <point x="250" y="533"/>
      <point x="308" y="480"/>
      <point x="376" y="480" type="curve" smooth="yes"/>
      <point x="444" y="480"/>
      <point x="503" y="533"/>
      <point x="503" y="602" type="curve" smooth="yes"/>
      <point x="503" y="605"/>
      <point x="502" y="608"/>
      <point x="502" y="611" type="curve"/>
      <point x="510" y="596"/>
      <point x="514" y="577"/>
      <point x="514" y="555" type="curve" smooth="yes"/>
      <point x="514" y="526"/>
      <point x="505" y="490"/>
      <point x="487" y="450" type="curve" smooth="yes"/>
      <point x="336" y="113" type="line"/>
      <point x="104" y="714" type="line"/>
      <point x="10" y="714" type="line"/>
    </contour>
    <contour>
      <point x="376" y="550" type="curve" smooth="yes"/>
      <point x="346" y="550"/>
      <point x="324" y="571"/>
      <point x="324" y="602" type="curve" smooth="yes"/>
      <point x="324" y="633"/>
      <point x="346" y="655"/>
      <point x="376" y="655" type="curve" smooth="yes"/>
      <point x="406" y="655"/>
      <point x="429" y="633"/>
      <point x="429" y="602" type="curve" smooth="yes"/>
      <point x="429" y="570"/>
      <point x="406" y="550"/>
    </contour>
  </outline>
</glyph>
<glyph name="u16B01" format="2">
  <advance width="662"/>
  <unicode hex="16B01"/>
  <outline>
    <contour>
      <point x="265" y="0" type="curve" smooth="yes"/>
      <point x="393" y="0" type="line" smooth="yes"/>
      <point x="521" y="0"/>
      <point x="582" y="69"/>
      <point x="582" y="159" type="curve" smooth="yes"/>
      <point x="582" y="714" type="line"/>
      <point x="75" y="714" type="line"/>
      <point x="75" y="634" type="line"/>
      <point x="492" y="634" type="line"/>
      <point x="492" y="419" type="line"/>
      <point x="255" y="419" type="line" smooth="yes"/>
      <point x="127" y="419"/>
      <point x="60" y="347"/>
      <point x="60" y="248" type="curve" smooth="yes"/>
      <point x="60" y="169" type="line" smooth="yes"/>
      <point x="60" y="63"/>
      <point x="127" y="0"/>
    </contour>
    <contour>
      <point x="265" y="80" type="line" smooth="yes"/>
      <point x="193" y="80"/>
      <point x="150" y="110"/>
      <point x="150" y="174" type="curve" smooth="yes"/>
      <point x="150" y="243" type="line" smooth="yes"/>
      <point x="150" y="293"/>
      <point x="190" y="339"/>
      <point x="255" y="339" type="curve" smooth="yes"/>
      <point x="492" y="339" type="line"/>
      <point x="492" y="174" type="line" smooth="yes"/>
      <point x="492" y="120"/>
      <point x="453" y="80"/>
      <point x="384" y="80" type="curve" smooth="yes"/>
    </contour>
  </outline>
</glyph>
<glyph name="u16B03" format="2">
  <advance width="779"/>
  <unicode hex="16B03"/>
  <outline>
    <contour>
      <point x="142" y="-11" type="curve" smooth="yes"/>
      <point x="265" y="-11"/>
      <point x="285" y="79"/>
      <point x="285" y="154" type="curve" smooth="yes"/>
      <point x="285" y="357" type="line"/>
      <point x="480" y="589" type="line"/>
      <point x="480" y="150" type="line" smooth="yes"/>
      <point x="480" y="94"/>
      <point x="505" y="-11"/>
      <point x="622" y="-11" type="curve" smooth="yes"/>
      <point x="690" y="-11"/>
      <point x="749" y="42"/>
      <point x="749" y="111" type="curve" smooth="yes"/>
      <point x="749" y="180"/>
      <point x="690" y="234"/>
      <point x="622" y="234" type="curve" smooth="yes"/>
      <point x="603" y="234"/>
      <point x="586" y="230"/>
      <point x="570" y="223" type="curve"/>
      <point x="570" y="714" type="line"/>
      <point x="480" y="714" type="line"/>
      <point x="480" y="685" type="line"/>
      <point x="285" y="456" type="line"/>
      <point x="285" y="714" type="line"/>
      <point x="195" y="714" type="line"/>
      <point x="195" y="350" type="line"/>
      <point x="94" y="231" type="line" smooth="yes"/>
      <point x="62" y="194"/>
      <point x="30" y="152"/>
      <point x="30" y="100" type="curve" smooth="yes"/>
      <point x="30" y="25"/>
      <point x="80" y="-11"/>
    </contour>
    <contour>
      <point x="142" y="57" type="curve" smooth="yes"/>
      <point x="115" y="57"/>
      <point x="102" y="79"/>
      <point x="102" y="100" type="curve" smooth="yes"/>
      <point x="102" y="128"/>
      <point x="110" y="149"/>
      <point x="133" y="176" type="curve" smooth="yes"/>
      <point x="195" y="250" type="line"/>
      <point x="195" y="124" type="line" smooth="yes"/>
      <point x="195" y="85"/>
      <point x="176" y="57"/>
    </contour>
    <contour>
      <point x="622" y="59" type="curve" smooth="yes"/>
      <point x="592" y="59"/>
      <point x="570" y="80"/>
      <point x="570" y="111" type="curve" smooth="yes"/>
      <point x="570" y="142"/>
      <point x="592" y="164"/>
      <point x="622" y="164" type="curve" smooth="yes"/>
      <point x="652" y="164"/>
      <point x="675" y="142"/>
      <point x="675" y="111" type="curve" smooth="yes"/>
      <point x="675" y="79"/>
      <point x="652" y="59"/>
    </contour>
  </outline>
</glyph>
<glyph name="u16B04" format="2">
  <advance width="690"/>
  <unicode hex="16B04"/>
  <outline>
    <contour>
      <point x="468" y="-11" type="curve" smooth="yes"/>
      <point x="585" y="-11"/>
      <point x="610" y="94"/>
      <point x="610" y="150" type="curve" smooth="yes"/>
      <point x="610" y="491" type="line" smooth="yes"/>
      <point x="610" y="639"/>
      <point x="531" y="725"/>
      <point x="342" y="725" type="curve" smooth="yes"/>
      <point x="164" y="725"/>
      <point x="80" y="648"/>
      <point x="80" y="489" type="curve" smooth="yes"/>
      <point x="80" y="0" type="line"/>
      <point x="170" y="0" type="line"/>
      <point x="170" y="484" type="line" smooth="yes"/>
      <point x="170" y="600"/>
      <point x="222" y="643"/>
      <point x="347" y="643" type="curve" smooth="yes"/>
      <point x="476" y="643"/>
      <point x="520" y="591"/>
      <point x="520" y="483" type="curve" smooth="yes"/>
      <point x="520" y="223" type="line"/>
      <point x="504" y="230"/>
      <point x="487" y="234"/>
      <point x="468" y="234" type="curve" smooth="yes"/>
      <point x="400" y="234"/>
      <point x="341" y="180"/>
      <point x="341" y="111" type="curve" smooth="yes"/>
      <point x="341" y="42"/>
      <point x="400" y="-11"/>
    </contour>
    <contour>
      <point x="468" y="59" type="curve" smooth="yes"/>
      <point x="438" y="59"/>
      <point x="415" y="79"/>
      <point x="415" y="111" type="curve" smooth="yes"/>
      <point x="415" y="142"/>
      <point x="438" y="164"/>
      <point x="468" y="164" type="curve" smooth="yes"/>
      <point x="498" y="164"/>
      <point x="520" y="142"/>
      <point x="520" y="111" type="curve" smooth="yes"/>
      <point x="520" y="80"/>
      <point x="498" y="59"/>
    </contour>
  </outline>
</glyph>
<glyph name="u16B05" format="2">
  <advance width="710"/>
  <unicode hex="16B05"/>
  <outline>
    <contour>
      <point x="222" y="-11" type="curve" smooth="yes"/>
      <point x="290" y="-11"/>
      <point x="349" y="42"/>
      <point x="349" y="111" type="curve" smooth="yes"/>
      <point x="349" y="180"/>
      <point x="290" y="234"/>
      <point x="222" y="234" type="curve" smooth="yes"/>
      <point x="203" y="234"/>
      <point x="186" y="230"/>
      <point x="170" y="223" type="curve"/>
      <point x="170" y="491" type="line" smooth="yes"/>
      <point x="170" y="599"/>
      <point x="224" y="643"/>
      <point x="353" y="643" type="curve" smooth="yes"/>
      <point x="429" y="643"/>
      <point x="482" y="630"/>
      <point x="512" y="593" type="curve"/>
      <point x="377" y="452"/>
      <point x="369" y="316"/>
      <point x="369" y="200" type="curve" smooth="yes"/>
      <point x="369" y="46"/>
      <point x="425" y="-11"/>
      <point x="498" y="-11" type="curve" smooth="yes"/>
      <point x="602" y="-11"/>
      <point x="630" y="79"/>
      <point x="630" y="154" type="curve" smooth="yes"/>
      <point x="630" y="492" type="line" smooth="yes"/>
      <point x="630" y="531"/>
      <point x="624" y="566"/>
      <point x="612" y="595" type="curve"/>
      <point x="634" y="613"/>
      <point x="658" y="629"/>
      <point x="685" y="647" type="curve"/>
      <point x="652" y="708" type="line"/>
      <point x="624" y="689"/>
      <point x="599" y="671"/>
      <point x="577" y="652" type="curve"/>
      <point x="532" y="701"/>
      <point x="458" y="725"/>
      <point x="358" y="725" type="curve" smooth="yes"/>
      <point x="169" y="725"/>
      <point x="80" y="645"/>
      <point x="80" y="497" type="curve" smooth="yes"/>
      <point x="80" y="150" type="line" smooth="yes"/>
      <point x="80" y="94"/>
      <point x="105" y="-11"/>
    </contour>
    <contour>
      <point x="222" y="59" type="curve" smooth="yes"/>
      <point x="192" y="59"/>
      <point x="170" y="80"/>
      <point x="170" y="111" type="curve" smooth="yes"/>
      <point x="170" y="142"/>
      <point x="192" y="164"/>
      <point x="222" y="164" type="curve" smooth="yes"/>
      <point x="252" y="164"/>
      <point x="275" y="142"/>
      <point x="275" y="111" type="curve" smooth="yes"/>
      <point x="275" y="79"/>
      <point x="252" y="59"/>
    </contour>
    <contour>
      <point x="496" y="59" type="curve" smooth="yes"/>
      <point x="460" y="59"/>
      <point x="443" y="123"/>
      <point x="443" y="200" type="curve" smooth="yes"/>
      <point x="443" y="360"/>
      <point x="476" y="453"/>
      <point x="538" y="526" type="curve"/>
      <point x="539" y="515"/>
      <point x="540" y="504"/>
      <point x="540" y="492" type="curve" smooth="yes"/>
      <point x="540" y="124" type="line" smooth="yes"/>
      <point x="540" y="85"/>
      <point x="521" y="59"/>
    </contour>
  </outline>
</glyph>
<glyph name="u16B06" format="2">
  <advance width="764"/>
  <unicode hex="16B06"/>
  <outline>
    <contour>
      <point x="262" y="-11" type="curve" smooth="yes"/>
      <point x="421" y="-11"/>
      <point x="450" y="83"/>
      <point x="450" y="231" type="curve" smooth="yes"/>
      <point x="450" y="634" type="line"/>
      <point x="584" y="634" type="line"/>
      <point x="584" y="0" type="line"/>
      <point x="674" y="0" type="line"/>
      <point x="674" y="714" type="line"/>
      <point x="360" y="714" type="line"/>
      <point x="360" y="231" type="line" smooth="yes"/>
      <point x="360" y="143"/>
      <point x="360" y="71"/>
      <point x="267" y="71" type="curve" smooth="yes"/>
      <point x="172" y="71"/>
      <point x="170" y="134"/>
      <point x="170" y="232" type="curve" smooth="yes"/>
      <point x="170" y="714" type="line"/>
      <point x="80" y="714" type="line"/>
      <point x="80" y="233" type="line" smooth="yes"/>
      <point x="80" y="74"/>
      <point x="109" y="-11"/>
    </contour>
  </outline>
</glyph>
<glyph name="u16B07" format="2">
  <advance width="659"/>
  <unicode hex="16B07"/>
  <outline>
    <contour>
      <point x="80" y="0" type="line"/>
      <point x="170" y="0" type="line"/>
      <point x="170" y="514" type="line" smooth="yes"/>
      <point x="170" y="602"/>
      <point x="182" y="643"/>
      <point x="252" y="643" type="curve" smooth="yes"/>
      <point x="353" y="643"/>
      <point x="466" y="545"/>
      <point x="479" y="469" type="curve"/>
      <point x="479" y="0" type="line"/>
      <point x="569" y="0" type="line"/>
      <point x="569" y="714" type="line"/>
      <point x="479" y="714" type="line"/>
      <point x="479" y="608" type="line"/>
      <point x="430" y="664"/>
      <point x="348" y="725"/>
      <point x="241" y="725" type="curve" smooth="yes"/>
      <point x="114" y="725"/>
      <point x="80" y="644"/>
      <point x="80" y="511" type="curve" smooth="yes"/>
    </contour>
  </outline>
</glyph>
<glyph name="u16B0C" format="2">
  <advance width="703"/>
  <unicode hex="16B0C"/>
  <outline>
    <contour>
      <point x="212" y="0" type="curve" smooth="yes"/>
      <point x="491" y="0" type="line" smooth="yes"/>
      <point x="587" y="0"/>
      <point x="623" y="66"/>
      <point x="623" y="148" type="curve" smooth="yes"/>
      <point x="623" y="714" type="line"/>
      <point x="533" y="714" type="line"/>
      <point x="533" y="171" type="line" smooth="yes"/>
      <point x="533" y="99"/>
      <point x="513" y="80"/>
      <point x="458" y="80" type="curve" smooth="yes"/>
      <point x="245" y="80" type="line" smooth="yes"/>
      <point x="190" y="80"/>
      <point x="170" y="99"/>
      <point x="170" y="171" type="curve" smooth="yes"/>
      <point x="170" y="342" type="line"/>
      <point x="350" y="342" type="line"/>
      <point x="350" y="422" type="line"/>
      <point x="170" y="422" type="line"/>
      <point x="170" y="714" type="line"/>
      <point x="80" y="714" type="line"/>
      <point x="80" y="148" type="line" smooth="yes"/>
      <point x="80" y="66"/>
      <point x="116" y="0"/>
    </contour>
  </outline>
</glyph>
<glyph name="u16B10" format="2">
  <advance width="765"/>
  <unicode hex="16B10"/>
  <outline>
    <contour>
      <point x="497" y="-11" type="curve" smooth="yes"/>
      <point x="656" y="-11"/>
      <point x="685" y="83"/>
      <point x="685" y="231" type="curve" smooth="yes"/>
      <point x="685" y="714" type="line"/>
      <point x="595" y="714" type="line"/>
      <point x="595" y="231" type="line" smooth="yes"/>
      <point x="595" y="143"/>
      <point x="595" y="71"/>
      <point x="502" y="71" type="curve" smooth="yes"/>
      <point x="407" y="71"/>
      <point x="405" y="134"/>
      <point x="405" y="232" type="curve" smooth="yes"/>
      <point x="405" y="714" type="line"/>
      <point x="90" y="714" type="line"/>
      <point x="90" y="0" type="line"/>
      <point x="180" y="0" type="line"/>
      <point x="180" y="634" type="line"/>
      <point x="315" y="634" type="line"/>
      <point x="315" y="233" type="line" smooth="yes"/>
      <point x="315" y="74"/>
      <point x="343" y="-11"/>
    </contour>
  </outline>
</glyph>
<glyph name="u16B13" format="2">
  <advance width="820"/>
  <unicode hex="16B13"/>
  <outline>
    <contour>
      <point x="267" y="-11" type="curve" smooth="yes"/>
      <point x="436" y="-11"/>
      <point x="460" y="83"/>
      <point x="460" y="231" type="curve" smooth="yes"/>
      <point x="460" y="480" type="line"/>
      <point x="518" y="485"/>
      <point x="581" y="494"/>
      <point x="640" y="512" type="curve"/>
      <point x="640" y="0" type="line"/>
      <point x="730" y="0" type="line"/>
      <point x="730" y="714" type="line"/>
      <point x="640" y="714" type="line"/>
      <point x="640" y="591" type="line"/>
      <point x="584" y="574"/>
      <point x="518" y="561"/>
      <point x="460" y="554" type="curve"/>
      <point x="460" y="566" type="line" smooth="yes"/>
      <point x="460" y="673"/>
      <point x="412" y="725"/>
      <point x="329" y="725" type="curve" smooth="yes"/>
      <point x="261" y="725"/>
      <point x="212" y="682"/>
      <point x="212" y="613" type="curve" smooth="yes"/>
      <point x="212" y="517"/>
      <point x="278" y="479"/>
      <point x="370" y="477" type="curve"/>
      <point x="370" y="231" type="line" smooth="yes"/>
      <point x="370" y="143"/>
      <point x="365" y="71"/>
      <point x="272" y="71" type="curve" smooth="yes"/>
      <point x="177" y="71"/>
      <point x="170" y="134"/>
      <point x="170" y="232" type="curve" smooth="yes"/>
      <point x="170" y="714" type="line"/>
      <point x="80" y="714" type="line"/>
      <point x="80" y="233" type="line" smooth="yes"/>
      <point x="80" y="74"/>
      <point x="109" y="-11"/>
    </contour>
    <contour>
      <point x="370" y="548" type="line"/>
      <point x="320" y="549"/>
      <point x="286" y="568"/>
      <point x="286" y="613" type="curve" smooth="yes"/>
      <point x="286" y="645"/>
      <point x="309" y="655"/>
      <point x="328" y="655" type="curve" smooth="yes"/>
      <point x="347" y="655"/>
      <point x="370" y="643"/>
      <point x="370" y="589" type="curve" smooth="yes"/>
    </contour>
  </outline>
</glyph>
<glyph name="u16B16" format="2">
  <advance width="663"/>
  <unicode hex="16B16"/>
  <outline>
    <contour>
      <point x="246" y="0" type="curve" smooth="yes"/>
      <point x="394" y="0" type="line" smooth="yes"/>
      <point x="522" y="0"/>
      <point x="583" y="69"/>
      <point x="583" y="159" type="curve" smooth="yes"/>
      <point x="583" y="555" type="line" smooth="yes"/>
      <point x="583" y="645"/>
      <point x="530" y="714"/>
      <point x="426" y="714" type="curve" smooth="yes"/>
      <point x="217" y="714" type="line" smooth="yes"/>
      <point x="113" y="714"/>
      <point x="60" y="645"/>
      <point x="60" y="555" type="curve" smooth="yes"/>
      <point x="60" y="480" type="line"/>
      <point x="150" y="480" type="line"/>
      <point x="150" y="540" type="line" smooth="yes"/>
      <point x="150" y="594"/>
      <point x="173" y="634"/>
      <point x="230" y="634" type="curve" smooth="yes"/>
      <point x="413" y="634" type="line" smooth="yes"/>
      <point x="470" y="634"/>
      <point x="493" y="594"/>
      <point x="493" y="540" type="curve" smooth="yes"/>
      <point x="493" y="387" type="line"/>
      <point x="470" y="404"/>
      <point x="436" y="419"/>
      <point x="388" y="419" type="curve" smooth="yes"/>
      <point x="236" y="419" type="line" smooth="yes"/>
      <point x="121" y="419"/>
      <point x="61" y="342"/>
      <point x="61" y="258" type="curve" smooth="yes"/>
      <point x="61" y="159" type="line" smooth="yes"/>
      <point x="61" y="59"/>
      <point x="121" y="0"/>
    </contour>
    <contour>
      <point x="266" y="80" type="line" smooth="yes"/>
      <point x="194" y="80"/>
      <point x="151" y="110"/>
      <point x="151" y="174" type="curve" smooth="yes"/>
      <point x="151" y="243" type="line" smooth="yes"/>
      <point x="151" y="293"/>
      <point x="181" y="339"/>
      <point x="256" y="339" type="curve" smooth="yes"/>
      <point x="388" y="339" type="line" smooth="yes"/>
      <point x="461" y="339"/>
      <point x="493" y="295"/>
      <point x="493" y="246" type="curve" smooth="yes"/>
      <point x="493" y="174" type="line" smooth="yes"/>
      <point x="493" y="120"/>
      <point x="454" y="80"/>
      <point x="385" y="80" type="curve" smooth="yes"/>
    </contour>
  </outline>
</glyph>
<glyph name="u16B17" format="2">
  <advance width="659"/>
  <unicode hex="16B17"/>
  <outline>
    <contour>
      <point x="262" y="-11" type="curve" smooth="yes"/>
      <point x="421" y="-11"/>
      <point x="450" y="83"/>
      <point x="450" y="231" type="curve" smooth="yes"/>
      <point x="450" y="491" type="line"/>
      <point x="466" y="484"/>
      <point x="483" y="480"/>
      <point x="502" y="480" type="curve" smooth="yes"/>
      <point x="570" y="480"/>
      <point x="629" y="534"/>
      <point x="629" y="603" type="curve" smooth="yes"/>
      <point x="629" y="672"/>
      <point x="570" y="725"/>
      <point x="502" y="725" type="curve" smooth="yes"/>
      <point x="385" y="725"/>
      <point x="360" y="620"/>
      <point x="360" y="564" type="curve" smooth="yes"/>
      <point x="360" y="231" type="line" smooth="yes"/>
      <point x="360" y="143"/>
      <point x="360" y="71"/>
      <point x="267" y="71" type="curve" smooth="yes"/>
      <point x="172" y="71"/>
      <point x="170" y="134"/>
      <point x="170" y="232" type="curve" smooth="yes"/>
      <point x="170" y="714" type="line"/>
      <point x="80" y="714" type="line"/>
      <point x="80" y="233" type="line" smooth="yes"/>
      <point x="80" y="74"/>
      <point x="108" y="-11"/>
    </contour>
    <contour>
      <point x="502" y="550" type="curve" smooth="yes"/>
      <point x="472" y="550"/>
      <point x="450" y="572"/>
      <point x="450" y="603" type="curve" smooth="yes"/>
      <point x="450" y="634"/>
      <point x="472" y="655"/>
      <point x="502" y="655" type="curve" smooth="yes"/>
      <point x="532" y="655"/>
      <point x="555" y="635"/>
      <point x="555" y="603" type="curve" smooth="yes"/>
      <point x="555" y="572"/>
      <point x="532" y="550"/>
    </contour>
  </outline>
</glyph>
<glyph name="u16B1A" format="2">
  <advance width="903"/>
  <unicode hex="16B1A"/>
  <outline>
    <contour>
      <point x="486" y="0" type="curve" smooth="yes"/>
      <point x="634" y="0" type="line" smooth="yes"/>
      <point x="762" y="0"/>
      <point x="823" y="69"/>
      <point x="823" y="159" type="curve" smooth="yes"/>
      <point x="823" y="555" type="line" smooth="yes"/>
      <point x="823" y="645"/>
      <point x="770" y="714"/>
      <point x="666" y="714" type="curve" smooth="yes"/>
      <point x="457" y="714" type="line" smooth="yes"/>
      <point x="353" y="714"/>
      <point x="300" y="645"/>
      <point x="300" y="555" type="curve" smooth="yes"/>
      <point x="300" y="480" type="line"/>
      <point x="390" y="480" type="line"/>
      <point x="390" y="540" type="line" smooth="yes"/>
      <point x="390" y="594"/>
      <point x="413" y="634"/>
      <point x="470" y="634" type="curve" smooth="yes"/>
      <point x="653" y="634" type="line" smooth="yes"/>
      <point x="710" y="634"/>
      <point x="733" y="594"/>
      <point x="733" y="540" type="curve" smooth="yes"/>
      <point x="733" y="387" type="line"/>
      <point x="710" y="404"/>
      <point x="676" y="419"/>
      <point x="628" y="419" type="curve" smooth="yes"/>
      <point x="476" y="419" type="line" smooth="yes"/>
      <point x="361" y="419"/>
      <point x="301" y="342"/>
      <point x="301" y="258" type="curve" smooth="yes"/>
      <point x="301" y="159" type="line" smooth="yes"/>
      <point x="301" y="59"/>
      <point x="361" y="0"/>
    </contour>
    <contour>
      <point x="90" y="0" type="line"/>
      <point x="180" y="0" type="line"/>
      <point x="180" y="714" type="line"/>
      <point x="90" y="714" type="line"/>
    </contour>
    <contour>
      <point x="506" y="80" type="line" smooth="yes"/>
      <point x="434" y="80"/>
      <point x="391" y="110"/>
      <point x="391" y="174" type="curve" smooth="yes"/>
      <point x="391" y="243" type="line" smooth="yes"/>
      <point x="391" y="293"/>
      <point x="421" y="339"/>
      <point x="496" y="339" type="curve" smooth="yes"/>
      <point x="628" y="339" type="line" smooth="yes"/>
      <point x="701" y="339"/>
      <point x="733" y="295"/>
      <point x="733" y="246" type="curve" smooth="yes"/>
      <point x="733" y="174" type="line" smooth="yes"/>
      <point x="733" y="120"/>
      <point x="694" y="80"/>
      <point x="625" y="80" type="curve"/>
    </contour>
  </outline>
</glyph>
<glyph name="u16B1B" format="2">
  <advance width="869"/>
  <unicode hex="16B1B"/>
  <outline>
    <contour>
      <point x="472" y="-11" type="curve" smooth="yes"/>
      <point x="631" y="-11"/>
      <point x="660" y="83"/>
      <point x="660" y="231" type="curve" smooth="yes"/>
      <point x="660" y="491" type="line"/>
      <point x="676" y="484"/>
      <point x="693" y="480"/>
      <point x="712" y="480" type="curve" smooth="yes"/>
      <point x="780" y="480"/>
      <point x="839" y="534"/>
      <point x="839" y="603" type="curve" smooth="yes"/>
      <point x="839" y="672"/>
      <point x="780" y="725"/>
      <point x="712" y="725" type="curve" smooth="yes"/>
      <point x="595" y="725"/>
      <point x="570" y="620"/>
      <point x="570" y="564" type="curve" smooth="yes"/>
      <point x="570" y="231" type="line" smooth="yes"/>
      <point x="570" y="143"/>
      <point x="570" y="71"/>
      <point x="477" y="71" type="curve" smooth="yes"/>
      <point x="382" y="71"/>
      <point x="380" y="134"/>
      <point x="380" y="232" type="curve" smooth="yes"/>
      <point x="380" y="714" type="line"/>
      <point x="290" y="714" type="line"/>
      <point x="290" y="233" type="line" smooth="yes"/>
      <point x="290" y="74"/>
      <point x="318" y="-11"/>
    </contour>
    <contour>
      <point x="90" y="0" type="line"/>
      <point x="180" y="0" type="line"/>
      <point x="180" y="714" type="line"/>
      <point x="90" y="714" type="line"/>
    </contour>
    <contour>
      <point x="712" y="550" type="curve" smooth="yes"/>
      <point x="682" y="550"/>
      <point x="660" y="572"/>
      <point x="660" y="603" type="curve" smooth="yes"/>
      <point x="660" y="634"/>
      <point x="682" y="655"/>
      <point x="712" y="655" type="curve" smooth="yes"/>
      <point x="742" y="655"/>
      <point x="765" y="635"/>
      <point x="765" y="603" type="curve" smooth="yes"/>
      <point x="765" y="572"/>
      <point x="742" y="550"/>
    </contour>
  </outline>
</glyph>
<glyph name="u16B21" format="2">
  <advance width="670"/>
  <unicode hex="16B21"/>
  <outline>
    <contour>
      <point x="332" y="-11" type="curve" smooth="yes"/>
      <point x="521" y="-11"/>
      <point x="590" y="71"/>
      <point x="590" y="219" type="curve" smooth="yes"/>
      <point x="590" y="714" type="line"/>
      <point x="500" y="714" type="line"/>
      <point x="500" y="444" type="line"/>
      <point x="170" y="444" type="line"/>
      <point x="170" y="714" type="line"/>
      <point x="80" y="714" type="line"/>
      <point x="80" y="221" type="line" smooth="yes"/>
      <point x="80" y="62"/>
      <point x="154" y="-11"/>
    </contour>
    <contour>
      <point x="337" y="71" type="curve" smooth="yes"/>
      <point x="212" y="71"/>
      <point x="170" y="107"/>
      <point x="170" y="223" type="curve" smooth="yes"/>
      <point x="170" y="364" type="line"/>
      <point x="500" y="364" type="line"/>
      <point x="500" y="224" type="line" smooth="yes"/>
      <point x="500" y="116"/>
      <point x="466" y="71"/>
    </contour>
  </outline>
</glyph>
<glyph name="u16B25" format="2">
  <advance width="664"/>
  <unicode hex="16B25"/>
  <outline>
    <contour>
      <point x="470" y="0" type="line"/>
      <point x="560" y="0" type="line"/>
      <point x="560" y="180" type="line"/>
      <point x="624" y="180" type="line"/>
      <point x="624" y="260" type="line"/>
      <point x="560" y="260" type="line"/>
      <point x="560" y="714" type="line"/>
      <point x="470" y="714" type="line"/>
      <point x="470" y="260" type="line"/>
      <point x="170" y="260" type="line"/>
      <point x="170" y="714" type="line"/>
      <point x="80" y="714" type="line"/>
      <point x="80" y="180" type="line"/>
      <point x="470" y="180" type="line"/>
    </contour>
  </outline>
</glyph>
<glyph name="u16B28" format="2">
  <advance width="671"/>
  <unicode hex="16B28"/>
  <outline>
    <contour>
      <point x="80" y="0" type="line"/>
      <point x="170" y="0" type="line"/>
      <point x="170" y="252" type="line"/>
      <point x="501" y="252" type="line"/>
      <point x="501" y="0" type="line"/>
      <point x="591" y="0" type="line"/>
      <point x="591" y="555" type="line" smooth="yes"/>
      <point x="591" y="645"/>
      <point x="538" y="714"/>
      <point x="434" y="714" type="curve" smooth="yes"/>
      <point x="217" y="714" type="line" smooth="yes"/>
      <point x="113" y="714"/>
      <point x="60" y="645"/>
      <point x="60" y="555" type="curve" smooth="yes"/>
      <point x="60" y="480" type="line"/>
      <point x="150" y="480" type="line"/>
      <point x="150" y="540" type="line" smooth="yes"/>
      <point x="150" y="594"/>
      <point x="173" y="634"/>
      <point x="230" y="634" type="curve" smooth="yes"/>
      <point x="421" y="634" type="line" smooth="yes"/>
      <point x="478" y="634"/>
      <point x="501" y="594"/>
      <point x="501" y="540" type="curve" smooth="yes"/>
      <point x="501" y="332" type="line"/>
      <point x="80" y="332" type="line"/>
    </contour>
  </outline>
</glyph>
<glyph name="u16B29" format="2">
  <advance width="791"/>
  <unicode hex="16B29"/>
  <outline>
    <contour>
      <point x="157" y="-11" type="curve" smooth="yes"/>
      <point x="274" y="-11"/>
      <point x="299" y="94"/>
      <point x="299" y="150" type="curve" smooth="yes"/>
      <point x="299" y="342" type="line"/>
      <point x="492" y="342" type="line"/>
      <point x="492" y="150" type="line" smooth="yes"/>
      <point x="492" y="94"/>
      <point x="517" y="-11"/>
      <point x="634" y="-11" type="curve" smooth="yes"/>
      <point x="702" y="-11"/>
      <point x="761" y="42"/>
      <point x="761" y="111" type="curve" smooth="yes"/>
      <point x="761" y="180"/>
      <point x="702" y="234"/>
      <point x="634" y="234" type="curve" smooth="yes"/>
      <point x="615" y="234"/>
      <point x="598" y="230"/>
      <point x="582" y="223" type="curve"/>
      <point x="582" y="714" type="line"/>
      <point x="492" y="714" type="line"/>
      <point x="492" y="422" type="line"/>
      <point x="299" y="422" type="line"/>
      <point x="299" y="714" type="line"/>
      <point x="209" y="714" type="line"/>
      <point x="209" y="223" type="line"/>
      <point x="193" y="230"/>
      <point x="176" y="234"/>
      <point x="157" y="234" type="curve" smooth="yes"/>
      <point x="89" y="234"/>
      <point x="30" y="180"/>
      <point x="30" y="111" type="curve" smooth="yes"/>
      <point x="30" y="42"/>
      <point x="89" y="-11"/>
    </contour>
    <contour>
      <point x="157" y="59" type="curve" smooth="yes"/>
      <point x="127" y="59"/>
      <point x="104" y="79"/>
      <point x="104" y="111" type="curve" smooth="yes"/>
      <point x="104" y="142"/>
      <point x="127" y="164"/>
      <point x="157" y="164" type="curve" smooth="yes"/>
      <point x="187" y="164"/>
      <point x="209" y="142"/>
      <point x="209" y="111" type="curve" smooth="yes"/>
      <point x="209" y="80"/>
      <point x="187" y="59"/>
    </contour>
    <contour>
      <point x="634" y="59" type="curve" smooth="yes"/>
      <point x="604" y="59"/>
      <point x="582" y="80"/>
      <point x="582" y="111" type="curve" smooth="yes"/>
      <point x="582" y="142"/>
      <point x="604" y="164"/>
      <point x="634" y="164" type="curve" smooth="yes"/>
      <point x="664" y="164"/>
      <point x="687" y="142"/>
      <point x="687" y="111" type="curve" smooth="yes"/>
      <point x="687" y="79"/>
      <point x="664" y="59"/>
    </contour>
  </outline>
</glyph>
<glyph name="u16B2A" format="2">
  <advance width="750"/>
  <unicode hex="16B2A"/>
  <outline>
    <contour>
      <point x="80" y="0" type="line"/>
      <point x="170" y="0" type="line"/>
      <point x="170" y="483" type="line" smooth="yes"/>
      <point x="170" y="591"/>
      <point x="189" y="643"/>
      <point x="243" y="643" type="curve" smooth="yes"/>
      <point x="301" y="643"/>
      <point x="330" y="590"/>
      <point x="330" y="483" type="curve" smooth="yes"/>
      <point x="330" y="0" type="line"/>
      <point x="420" y="0" type="line"/>
      <point x="420" y="485" type="line" smooth="yes"/>
      <point x="420" y="591"/>
      <point x="450" y="643"/>
      <point x="507" y="643" type="curve" smooth="yes"/>
      <point x="561" y="643"/>
      <point x="580" y="591"/>
      <point x="580" y="483" type="curve" smooth="yes"/>
      <point x="580" y="0" type="line"/>
      <point x="670" y="0" type="line"/>
      <point x="670" y="483" type="line" smooth="yes"/>
      <point x="670" y="631"/>
      <point x="632" y="725"/>
      <point x="510" y="725" type="curve" smooth="yes"/>
      <point x="454" y="725"/>
      <point x="407" y="693"/>
      <point x="375" y="645" type="curve"/>
      <point x="343" y="693"/>
      <point x="296" y="725"/>
      <point x="240" y="725" type="curve" smooth="yes"/>
      <point x="118" y="725"/>
      <point x="80" y="631"/>
      <point x="80" y="483" type="curve" smooth="yes"/>
    </contour>
  </outline>
</glyph>
<glyph name="u16B2B" format="2">
  <advance width="692"/>
  <unicode hex="16B2B"/>
  <outline>
    <contour>
      <point x="90" y="0" type="line"/>
      <point x="180" y="0" type="line"/>
      <point x="180" y="559" type="line"/>
      <point x="321" y="278" type="line"/>
      <point x="371" y="278" type="line"/>
      <point x="512" y="553" type="line"/>
      <point x="512" y="0" type="line"/>
      <point x="602" y="0" type="line"/>
      <point x="602" y="714" type="line"/>
      <point x="512" y="714" type="line"/>
      <point x="346" y="399" type="line"/>
      <point x="180" y="714" type="line"/>
      <point x="90" y="714" type="line"/>
    </contour>
  </outline>
</glyph>
<glyph name="u16B2E" format="2">
  <advance width="598"/>
  <unicode hex="16B2E"/>
  <outline>
    <contour>
      <point x="10" y="0" type="line"/>
      <point x="101" y="0" type="line"/>
      <point x="126" y="80" type="line"/>
      <point x="469" y="80" type="line"/>
      <point x="495" y="0" type="line"/>
      <point x="588" y="0" type="line"/>
      <point x="350" y="717" type="line"/>
      <point x="249" y="717" type="line"/>
    </contour>
    <contour>
      <point x="152" y="160" type="line"/>
      <point x="267" y="517" type="line" smooth="yes"/>
      <point x="275" y="541"/>
      <point x="288" y="586"/>
      <point x="298" y="627" type="curve"/>
      <point x="305" y="602"/>
      <point x="327" y="533"/>
      <point x="332" y="517" type="curve" smooth="yes"/>
      <point x="444" y="160" type="line"/>
    </contour>
  </outline>
</glyph>
<glyph name="u16B2F" format="2">
  <advance width="598"/>
  <unicode hex="16B2F"/>
  <outline>
    <contour>
      <point x="248" y="0" type="line"/>
      <point x="349" y="0" type="line"/>
      <point x="588" y="717" type="line"/>
      <point x="497" y="717" type="line"/>
      <point x="439" y="537" type="line"/>
      <point x="160" y="537" type="line"/>
      <point x="103" y="717" type="line"/>
      <point x="10" y="717" type="line"/>
    </contour>
    <contour>
      <point x="300" y="90" type="curve"/>
      <point x="293" y="115"/>
      <point x="271" y="184"/>
      <point x="266" y="200" type="curve" smooth="yes"/>
      <point x="185" y="457" type="line"/>
      <point x="413" y="457" type="line"/>
      <point x="331" y="200" type="line" smooth="yes"/>
      <point x="323" y="176"/>
      <point x="310" y="131"/>
    </contour>
  </outline>
</glyph>
<glyph name="u16B33" format="2">
  <unicode hex="16B33"/>
  <outline>
    <contour>
      <point x="-215" y="800" type="line"/>
      <point x="-111" y="800" type="line"/>
      <point x="0" y="918" type="line"/>
      <point x="112" y="800" type="line"/>
      <point x="216" y="800" type="line"/>
      <point x="10" y="1019" type="line"/>
      <point x="-9" y="1019" type="line"/>
    </contour>
  </outline>
</glyph>
<glyph name="u16B35" format="2">
  <unicode hex="16B35"/>
  <outline>
    <contour>
      <point x="-172" y="800" type="line"/>
      <point x="173" y="800" type="line"/>
      <point x="173" y="874" type="line"/>
      <point x="43" y="874" type="line"/>
      <point x="43" y="1028" type="line"/>
      <point x="-42" y="1028" type="line"/>
      <point x="-42" y="874" type="line"/>
      <point x="-172" y="874" type="line"/>
    </contour>
  </outline>
</glyph>
<glyph name="u16B36" format="2">
  <unicode hex="16B36"/>
  <outline>
    <contour>
      <point x="130" y="790" type="curve" smooth="yes"/>
      <point x="170" y="790"/>
      <point x="203" y="822"/>
      <point x="203" y="862" type="curve" smooth="yes"/>
      <point x="203" y="902"/>
      <point x="170" y="935"/>
      <point x="130" y="935" type="curve" smooth="yes"/>
      <point x="90" y="935"/>
      <point x="58" y="902"/>
      <point x="58" y="862" type="curve" smooth="yes"/>
      <point x="58" y="822"/>
      <point x="90" y="790"/>
    </contour>
    <contour>
      <point x="-130" y="790" type="curve" smooth="yes"/>
      <point x="-90" y="790"/>
      <point x="-57" y="822"/>
      <point x="-57" y="862" type="curve" smooth="yes"/>
      <point x="-57" y="902"/>
      <point x="-90" y="935"/>
      <point x="-130" y="935" type="curve" smooth="yes"/>
      <point x="-170" y="935"/>
      <point x="-202" y="902"/>
      <point x="-202" y="862" type="curve" smooth="yes"/>
      <point x="-202" y="822"/>
      <point x="-170" y="790"/>
    </contour>
  </outline>
</glyph>
<glyph name="u16B37" format="2">
  <advance width="830"/>
  <unicode hex="16B37"/>
  <outline>
    <contour>
      <point x="20" y="190" type="line"/>
      <point x="163" y="190" type="line" smooth="yes"/>
      <point x="267" y="190"/>
      <point x="320" y="259"/>
      <point x="320" y="349" type="curve" smooth="yes"/>
      <point x="320" y="405" type="line"/>
      <point x="344" y="387"/>
      <point x="374" y="376"/>
      <point x="412" y="376" type="curve" smooth="yes"/>
      <point x="453" y="376"/>
      <point x="485" y="388"/>
      <point x="510" y="407" type="curve"/>
      <point x="510" y="349" type="line" smooth="yes"/>
      <point x="510" y="259"/>
      <point x="563" y="190"/>
      <point x="667" y="190" type="curve" smooth="yes"/>
      <point x="810" y="190" type="line"/>
      <point x="810" y="270" type="line"/>
      <point x="680" y="270" type="line" smooth="yes"/>
      <point x="623" y="270"/>
      <point x="600" y="310"/>
      <point x="600" y="364" type="curve" smooth="yes"/>
      <point x="600" y="714" type="line"/>
      <point x="510" y="714" type="line"/>
      <point x="510" y="638" type="line" smooth="yes"/>
      <point x="510" y="530"/>
      <point x="506" y="458"/>
      <point x="417" y="458" type="curve" smooth="yes"/>
      <point x="332" y="458"/>
      <point x="320" y="521"/>
      <point x="320" y="637" type="curve" smooth="yes"/>
      <point x="320" y="714" type="line"/>
      <point x="230" y="714" type="line"/>
      <point x="230" y="364" type="line" smooth="yes"/>
      <point x="230" y="310"/>
      <point x="207" y="270"/>
      <point x="150" y="270" type="curve" smooth="yes"/>
      <point x="20" y="270" type="line"/>
    </contour>
    <contour>
      <point x="412" y="-11" type="curve" smooth="yes"/>
      <point x="452" y="-11"/>
      <point x="485" y="21"/>
      <point x="485" y="61" type="curve" smooth="yes"/>
      <point x="485" y="101"/>
      <point x="452" y="134"/>
      <point x="412" y="134" type="curve" smooth="yes"/>
      <point x="372" y="134"/>
      <point x="340" y="101"/>
      <point x="340" y="61" type="curve" smooth="yes"/>
      <point x="340" y="21"/>
      <point x="372" y="-11"/>
    </contour>
  </outline>
</glyph>
<glyph name="u16B3A" format="2">
  <advance width="605"/>
  <unicode hex="16B3A"/>
  <outline>
    <contour>
      <point x="388" y="-11" type="curve" smooth="yes"/>
      <point x="496" y="-11"/>
      <point x="555" y="73"/>
      <point x="555" y="173" type="curve" smooth="yes"/>
      <point x="555" y="271"/>
      <point x="492" y="344"/>
      <point x="388" y="419" type="curve" smooth="yes"/>
      <point x="323" y="466" type="line"/>
      <point x="339" y="513"/>
      <point x="351" y="559"/>
      <point x="351" y="600" type="curve" smooth="yes"/>
      <point x="351" y="674"/>
      <point x="311" y="725"/>
      <point x="223" y="725" type="curve" smooth="yes"/>
      <point x="156" y="725"/>
      <point x="111" y="683"/>
      <point x="111" y="614" type="curve" smooth="yes"/>
      <point x="111" y="551"/>
      <point x="146" y="503"/>
      <point x="185" y="474" type="curve" smooth="yes"/>
      <point x="226" y="443" type="line"/>
      <point x="187" y="328" type="line"/>
      <point x="132" y="452" type="line"/>
      <point x="50" y="452" type="line"/>
      <point x="152" y="226" type="line"/>
      <point x="76" y="0" type="line"/>
      <point x="166" y="0" type="line"/>
      <point x="204" y="112" type="line"/>
      <point x="241" y="41"/>
      <point x="287" y="-11"/>
    </contour>
    <contour>
      <point x="385" y="71" type="curve" smooth="yes"/>
      <point x="309" y="71"/>
      <point x="268" y="144"/>
      <point x="238" y="213" type="curve"/>
      <point x="297" y="393" type="line"/>
      <point x="354" y="352" type="line" smooth="yes"/>
      <point x="411" y="311"/>
      <point x="463" y="256"/>
      <point x="463" y="174" type="curve" smooth="yes"/>
      <point x="463" y="110"/>
      <point x="440" y="71"/>
    </contour>
    <contour>
      <point x="251" y="518" type="curve"/>
      <point x="224" y="538" type="line" smooth="yes"/>
      <point x="195" y="559"/>
      <point x="183" y="586"/>
      <point x="183" y="614" type="curve" smooth="yes"/>
      <point x="183" y="635"/>
      <point x="196" y="657"/>
      <point x="223" y="657" type="curve" smooth="yes"/>
      <point x="245" y="657"/>
      <point x="261" y="632"/>
      <point x="261" y="588" type="curve" smooth="yes"/>
      <point x="261" y="568"/>
      <point x="258" y="545"/>
    </contour>
  </outline>
</glyph>
<glyph name="u16B3B" format="2">
  <advance width="665"/>
  <unicode hex="16B3B"/>
  <outline>
    <contour>
      <point x="332" y="-11" type="curve" smooth="yes"/>
      <point x="508" y="-11"/>
      <point x="615" y="64"/>
      <point x="615" y="157" type="curve" smooth="yes"/>
      <point x="615" y="215"/>
      <point x="561" y="267"/>
      <point x="480" y="297" type="curve"/>
      <point x="561" y="327"/>
      <point x="615" y="379"/>
      <point x="615" y="437" type="curve" smooth="yes"/>
      <point x="615" y="531"/>
      <point x="508" y="606"/>
      <point x="332" y="606" type="curve" smooth="yes"/>
      <point x="156" y="606"/>
      <point x="50" y="531"/>
      <point x="50" y="437" type="curve" smooth="yes"/>
      <point x="50" y="379"/>
      <point x="103" y="327"/>
      <point x="184" y="297" type="curve"/>
      <point x="103" y="267"/>
      <point x="50" y="215"/>
      <point x="50" y="157" type="curve" smooth="yes"/>
      <point x="50" y="64"/>
      <point x="156" y="-11"/>
    </contour>
    <contour>
      <point x="332" y="57" type="curve" smooth="yes"/>
      <point x="226" y="57"/>
      <point x="140" y="100"/>
      <point x="140" y="157" type="curve" smooth="yes"/>
      <point x="140" y="218"/>
      <point x="226" y="264"/>
      <point x="332" y="264" type="curve" smooth="yes"/>
      <point x="439" y="264"/>
      <point x="525" y="218"/>
      <point x="525" y="157" type="curve" smooth="yes"/>
      <point x="525" y="100"/>
      <point x="439" y="57"/>
    </contour>
    <contour>
      <point x="332" y="103" type="curve" smooth="yes"/>
      <point x="364" y="103"/>
      <point x="391" y="129"/>
      <point x="391" y="162" type="curve" smooth="yes"/>
      <point x="391" y="194"/>
      <point x="364" y="221"/>
      <point x="332" y="221" type="curve" smooth="yes"/>
      <point x="299" y="221"/>
      <point x="273" y="194"/>
      <point x="273" y="162" type="curve" smooth="yes"/>
      <point x="273" y="129"/>
      <point x="299" y="103"/>
    </contour>
    <contour>
      <point x="332" y="334" type="curve" smooth="yes"/>
      <point x="226" y="334"/>
      <point x="140" y="378"/>
      <point x="140" y="437" type="curve" smooth="yes"/>
      <point x="140" y="494"/>
      <point x="226" y="537"/>
      <point x="332" y="537" type="curve" smooth="yes"/>
      <point x="439" y="537"/>
      <point x="525" y="494"/>
      <point x="525" y="437" type="curve" smooth="yes"/>
      <point x="525" y="378"/>
      <point x="439" y="334"/>
    </contour>
    <contour>
      <point x="332" y="383" type="curve" smooth="yes"/>
      <point x="364" y="383"/>
      <point x="391" y="409"/>
      <point x="391" y="442" type="curve" smooth="yes"/>
      <point x="391" y="474"/>
      <point x="364" y="501"/>
      <point x="332" y="501" type="curve" smooth="yes"/>
      <point x="299" y="501"/>
      <point x="273" y="474"/>
      <point x="273" y="442" type="curve" smooth="yes"/>
      <point x="273" y="409"/>
      <point x="299" y="383"/>
    </contour>
  </outline>
</glyph>
<glyph name="u16B3D" format="2">
  <advance width="645"/>
  <unicode hex="16B3D"/>
  <outline>
    <contour>
      <point x="305" y="0" type="line"/>
      <point x="395" y="0" type="line"/>
      <point x="395" y="604" type="line"/>
      <point x="20" y="604" type="line"/>
      <point x="20" y="524" type="line"/>
      <point x="305" y="524" type="line"/>
    </contour>
    <contour>
      <point x="177" y="214" type="curve" smooth="yes"/>
      <point x="217" y="214"/>
      <point x="250" y="246"/>
      <point x="250" y="286" type="curve" smooth="yes"/>
      <point x="250" y="326"/>
      <point x="217" y="359"/>
      <point x="177" y="359" type="curve" smooth="yes"/>
      <point x="137" y="359"/>
      <point x="105" y="326"/>
      <point x="105" y="286" type="curve" smooth="yes"/>
      <point x="105" y="246"/>
      <point x="137" y="214"/>
    </contour>
    <contour>
      <point x="522" y="214" type="curve" smooth="yes"/>
      <point x="562" y="214"/>
      <point x="595" y="246"/>
      <point x="595" y="286" type="curve" smooth="yes"/>
      <point x="595" y="326"/>
      <point x="562" y="359"/>
      <point x="522" y="359" type="curve" smooth="yes"/>
      <point x="482" y="359"/>
      <point x="450" y="326"/>
      <point x="450" y="286" type="curve" smooth="yes"/>
      <point x="450" y="246"/>
      <point x="482" y="214"/>
    </contour>
  </outline>
</glyph>
<glyph name="u16B43" format="2">
  <advance width="729"/>
  <unicode hex="16B43"/>
  <outline>
    <contour>
      <point x="277" y="-11" type="curve" smooth="yes"/>
      <point x="389" y="-11"/>
      <point x="447" y="42"/>
      <point x="469" y="131" type="curve"/>
      <point x="584" y="144"/>
      <point x="628" y="219"/>
      <point x="628" y="344" type="curve"/>
      <point x="541" y="344" type="line"/>
      <point x="541" y="268"/>
      <point x="529" y="227"/>
      <point x="479" y="212" type="curve"/>
      <point x="479" y="218"/>
      <point x="480" y="225"/>
      <point x="480" y="231" type="curve" smooth="yes"/>
      <point x="480" y="434" type="line"/>
      <point x="651" y="434" type="line"/>
      <point x="651" y="514" type="line"/>
      <point x="480" y="514" type="line"/>
      <point x="480" y="714" type="line"/>
      <point x="390" y="714" type="line"/>
      <point x="390" y="231" type="line" smooth="yes"/>
      <point x="390" y="224"/>
      <point x="389" y="217"/>
      <point x="389" y="210" type="curve"/>
      <point x="328" y="227"/>
      <point x="315" y="291"/>
      <point x="315" y="366" type="curve" smooth="yes"/>
      <point x="315" y="514" type="line"/>
      <point x="228" y="514" type="line"/>
      <point x="228" y="371" type="line" smooth="yes"/>
      <point x="228" y="242"/>
      <point x="269" y="154"/>
      <point x="378" y="134" type="curve"/>
      <point x="364" y="95"/>
      <point x="336" y="71"/>
      <point x="282" y="71" type="curve" smooth="yes"/>
      <point x="187" y="71"/>
      <point x="170" y="134"/>
      <point x="170" y="232" type="curve" smooth="yes"/>
      <point x="170" y="294" type="line"/>
      <point x="80" y="294" type="line"/>
      <point x="80" y="233" type="line" smooth="yes"/>
      <point x="80" y="74"/>
      <point x="133" y="-11"/>
    </contour>
  </outline>
</glyph>
<glyph name="u16B44" format="2">
  <advance width="667"/>
  <unicode hex="16B44"/>
  <outline>
    <contour>
      <point x="289" y="0" type="line"/>
      <point x="379" y="0" type="line"/>
      <point x="379" y="634" type="line"/>
      <point x="647" y="634" type="line"/>
      <point x="647" y="714" type="line"/>
      <point x="20" y="714" type="line"/>
      <point x="20" y="634" type="line"/>
      <point x="289" y="634" type="line"/>
    </contour>
    <contour>
      <point x="161" y="315" type="curve" smooth="yes"/>
      <point x="201" y="315"/>
      <point x="234" y="347"/>
      <point x="234" y="387" type="curve" smooth="yes"/>
      <point x="234" y="427"/>
      <point x="201" y="460"/>
      <point x="161" y="460" type="curve" smooth="yes"/>
      <point x="121" y="460"/>
      <point x="89" y="427"/>
      <point x="89" y="387" type="curve" smooth="yes"/>
      <point x="89" y="347"/>
      <point x="121" y="315"/>
    </contour>
    <contour>
      <point x="506" y="315" type="curve" smooth="yes"/>
      <point x="546" y="315"/>
      <point x="579" y="347"/>
      <point x="579" y="387" type="curve" smooth="yes"/>
      <point x="579" y="427"/>
      <point x="546" y="460"/>
      <point x="506" y="460" type="curve" smooth="yes"/>
      <point x="466" y="460"/>
      <point x="434" y="427"/>
      <point x="434" y="387" type="curve" smooth="yes"/>
      <point x="434" y="347"/>
      <point x="466" y="315"/>
    </contour>
  </outline>
</glyph>
<glyph name="u16B50" format="2">
  <advance width="270"/>
  <unicode hex="16B50"/>
  <outline>
    <contour>
      <point x="90" y="0" type="line"/>
      <point x="180" y="0" type="line"/>
      <point x="180" y="714" type="line"/>
      <point x="90" y="714" type="line"/>
    </contour>
  </outline>
</glyph>
<glyph name="u16B51" format="2">
  <advance width="639"/>
  <unicode hex="16B51"/>
  <outline>
    <contour>
      <point x="459" y="0" type="line"/>
      <point x="549" y="0" type="line"/>
      <point x="549" y="714" type="line"/>
      <point x="459" y="714" type="line"/>
      <point x="459" y="456" type="line"/>
      <point x="446" y="379"/>
      <point x="333" y="282"/>
      <point x="232" y="282" type="curve" smooth="yes"/>
      <point x="162" y="282"/>
      <point x="150" y="323"/>
      <point x="150" y="411" type="curve" smooth="yes"/>
      <point x="150" y="714" type="line"/>
      <point x="60" y="714" type="line"/>
      <point x="60" y="414" type="line" smooth="yes"/>
      <point x="60" y="281"/>
      <point x="94" y="200"/>
      <point x="221" y="200" type="curve" smooth="yes"/>
      <point x="328" y="200"/>
      <point x="410" y="261"/>
      <point x="459" y="316" type="curve"/>
    </contour>
  </outline>
</glyph>
<glyph name="u16B52" format="2">
  <advance width="661"/>
  <unicode hex="16B52"/>
  <outline>
    <contour>
      <point x="207" y="0" type="curve" smooth="yes"/>
      <point x="424" y="0" type="line" smooth="yes"/>
      <point x="528" y="0"/>
      <point x="581" y="49"/>
      <point x="581" y="139" type="curve" smooth="yes"/>
      <point x="581" y="220" type="line" smooth="yes"/>
      <point x="581" y="291"/>
      <point x="534" y="329"/>
      <point x="470" y="329" type="curve" smooth="yes"/>
      <point x="294" y="329" type="line" smooth="yes"/>
      <point x="243" y="329"/>
      <point x="241" y="340"/>
      <point x="241" y="361" type="curve" smooth="yes"/>
      <point x="241" y="387"/>
      <point x="251" y="390"/>
      <point x="302" y="390" type="curve" smooth="yes"/>
      <point x="470" y="390" type="line" smooth="yes"/>
      <point x="534" y="390"/>
      <point x="581" y="428"/>
      <point x="581" y="499" type="curve" smooth="yes"/>
      <point x="581" y="575" type="line" smooth="yes"/>
      <point x="581" y="665"/>
      <point x="528" y="714"/>
      <point x="424" y="714" type="curve" smooth="yes"/>
      <point x="207" y="714" type="line" smooth="yes"/>
      <point x="103" y="714"/>
      <point x="50" y="645"/>
      <point x="50" y="555" type="curve" smooth="yes"/>
      <point x="50" y="520" type="line"/>
      <point x="140" y="520" type="line"/>
      <point x="140" y="540" type="line" smooth="yes"/>
      <point x="140" y="594"/>
      <point x="163" y="634"/>
      <point x="220" y="634" type="curve" smooth="yes"/>
      <point x="411" y="634" type="line" smooth="yes"/>
      <point x="468" y="634"/>
      <point x="491" y="614"/>
      <point x="491" y="574" type="curve" smooth="yes"/>
      <point x="491" y="511" type="line" smooth="yes"/>
      <point x="491" y="483"/>
      <point x="468" y="464"/>
      <point x="439" y="464" type="curve" smooth="yes"/>
      <point x="264" y="464" type="line" smooth="yes"/>
      <point x="205" y="464"/>
      <point x="167" y="456"/>
      <point x="167" y="361" type="curve" smooth="yes"/>
      <point x="167" y="264"/>
      <point x="221" y="255"/>
      <point x="252" y="255" type="curve" smooth="yes"/>
      <point x="439" y="255" type="line" smooth="yes"/>
      <point x="468" y="255"/>
      <point x="491" y="236"/>
      <point x="491" y="208" type="curve" smooth="yes"/>
      <point x="491" y="140" type="line" smooth="yes"/>
      <point x="491" y="100"/>
      <point x="468" y="80"/>
      <point x="411" y="80" type="curve" smooth="yes"/>
      <point x="220" y="80" type="line" smooth="yes"/>
      <point x="163" y="80"/>
      <point x="140" y="120"/>
      <point x="140" y="174" type="curve" smooth="yes"/>
      <point x="140" y="194" type="line"/>
      <point x="50" y="194" type="line"/>
      <point x="50" y="159" type="line" smooth="yes"/>
      <point x="50" y="69"/>
      <point x="103" y="0"/>
    </contour>
  </outline>
</glyph>
<glyph name="u16B56" format="2">
  <advance width="601"/>
  <unicode hex="16B56"/>
  <outline>
    <contour>
      <point x="237" y="0" type="curve" smooth="yes"/>
      <point x="394" y="0" type="line" smooth="yes"/>
      <point x="498" y="0"/>
      <point x="551" y="69"/>
      <point x="551" y="159" type="curve" smooth="yes"/>
      <point x="551" y="215" type="line"/>
      <point x="461" y="215" type="line"/>
      <point x="461" y="174" type="line" smooth="yes"/>
      <point x="461" y="120"/>
      <point x="438" y="80"/>
      <point x="381" y="80" type="curve" smooth="yes"/>
      <point x="250" y="80" type="line" smooth="yes"/>
      <point x="193" y="80"/>
      <point x="170" y="120"/>
      <point x="170" y="174" type="curve" smooth="yes"/>
      <point x="170" y="540" type="line" smooth="yes"/>
      <point x="170" y="594"/>
      <point x="193" y="634"/>
      <point x="250" y="634" type="curve" smooth="yes"/>
      <point x="355" y="634" type="line" smooth="yes"/>
      <point x="407" y="634"/>
      <point x="461" y="594"/>
      <point x="461" y="540" type="curve" smooth="yes"/>
      <point x="461" y="480" type="line"/>
      <point x="551" y="480" type="line"/>
      <point x="551" y="742" type="line"/>
      <point x="471" y="742" type="line"/>
      <point x="471" y="682" type="line"/>
      <point x="442" y="702"/>
      <point x="406" y="714"/>
      <point x="365" y="714" type="curve" smooth="yes"/>
      <point x="237" y="714" type="line" smooth="yes"/>
      <point x="133" y="714"/>
      <point x="80" y="645"/>
      <point x="80" y="555" type="curve" smooth="yes"/>
      <point x="80" y="159" type="line" smooth="yes"/>
      <point x="80" y="69"/>
      <point x="133" y="0"/>
    </contour>
  </outline>
</glyph>
<glyph name="u16B57" format="2">
  <advance width="649"/>
  <unicode hex="16B57"/>
  <outline>
    <contour>
      <point x="90" y="0" type="line"/>
      <point x="180" y="0" type="line"/>
      <point x="180" y="313" type="line"/>
      <point x="215" y="313" type="line" smooth="yes"/>
      <point x="257" y="313"/>
      <point x="286" y="286"/>
      <point x="309" y="258" type="curve" smooth="yes"/>
      <point x="518" y="0" type="line"/>
      <point x="629" y="0" type="line"/>
      <point x="362" y="321" type="line" smooth="yes"/>
      <point x="354" y="330"/>
      <point x="344" y="340"/>
      <point x="332" y="350" type="curve"/>
      <point x="452" y="398"/>
      <point x="561" y="487"/>
      <point x="561" y="593" type="curve" smooth="yes"/>
      <point x="561" y="672"/>
      <point x="503" y="725"/>
      <point x="435" y="725" type="curve" smooth="yes"/>
      <point x="367" y="725"/>
      <point x="308" y="672"/>
      <point x="308" y="603" type="curve" smooth="yes"/>
      <point x="308" y="546"/>
      <point x="350" y="498"/>
      <point x="407" y="483" type="curve"/>
      <point x="353" y="424"/>
      <point x="273" y="395"/>
      <point x="180" y="393" type="curve"/>
      <point x="180" y="714" type="line"/>
      <point x="90" y="714" type="line"/>
    </contour>
    <contour>
      <point x="435" y="550" type="curve" smooth="yes"/>
      <point x="405" y="550"/>
      <point x="382" y="572"/>
      <point x="382" y="603" type="curve" smooth="yes"/>
      <point x="382" y="635"/>
      <point x="405" y="655"/>
      <point x="435" y="655" type="curve" smooth="yes"/>
      <point x="465" y="655"/>
      <point x="487" y="634"/>
      <point x="487" y="603" type="curve" smooth="yes"/>
      <point x="487" y="572"/>
      <point x="465" y="550"/>
    </contour>
  </outline>
</glyph>
<glyph name="u16B58" format="2">
  <advance width="599"/>
  <unicode hex="16B58"/>
  <outline>
    <contour>
      <point x="445" y="-11" type="curve" smooth="yes"/>
      <point x="513" y="-11"/>
      <point x="571" y="42"/>
      <point x="571" y="121" type="curve" smooth="yes"/>
      <point x="571" y="239"/>
      <point x="434" y="337"/>
      <point x="299" y="379" type="curve"/>
      <point x="304" y="383"/>
      <point x="308" y="388"/>
      <point x="312" y="393" type="curve" smooth="yes"/>
      <point x="579" y="714" type="line"/>
      <point x="468" y="714" type="line"/>
      <point x="259" y="456" type="line" smooth="yes"/>
      <point x="239" y="431"/>
      <point x="214" y="407"/>
      <point x="180" y="402" type="curve"/>
      <point x="180" y="714" type="line"/>
      <point x="90" y="714" type="line"/>
      <point x="90" y="0" type="line"/>
      <point x="180" y="0" type="line"/>
      <point x="180" y="321" type="line"/>
      <point x="277" y="320"/>
      <point x="361" y="292"/>
      <point x="417" y="231" type="curve"/>
      <point x="360" y="216"/>
      <point x="318" y="168"/>
      <point x="318" y="111" type="curve" smooth="yes"/>
      <point x="318" y="42"/>
      <point x="377" y="-11"/>
    </contour>
    <contour>
      <point x="445" y="59" type="curve" smooth="yes"/>
      <point x="415" y="59"/>
      <point x="392" y="79"/>
      <point x="392" y="111" type="curve" smooth="yes"/>
      <point x="392" y="142"/>
      <point x="415" y="164"/>
      <point x="445" y="164" type="curve" smooth="yes"/>
      <point x="475" y="164"/>
      <point x="497" y="142"/>
      <point x="497" y="111" type="curve" smooth="yes"/>
      <point x="497" y="80"/>
      <point x="475" y="59"/>
    </contour>
  </outline>
</glyph>
<glyph name="u16B5D" format="2">
  <advance width="741"/>
  <unicode hex="16B5D"/>
  <outline>
    <contour>
      <point x="171" y="0" type="curve" smooth="yes"/>
      <point x="189" y="0" type="line" smooth="yes"/>
      <point x="283" y="0"/>
      <point x="321" y="69"/>
      <point x="321" y="159" type="curve" smooth="yes"/>
      <point x="321" y="322" type="line"/>
      <point x="420" y="322" type="line"/>
      <point x="420" y="159" type="line" smooth="yes"/>
      <point x="420" y="69"/>
      <point x="458" y="0"/>
      <point x="552" y="0" type="curve" smooth="yes"/>
      <point x="570" y="0" type="line" smooth="yes"/>
      <point x="653" y="0"/>
      <point x="701" y="69"/>
      <point x="701" y="159" type="curve" smooth="yes"/>
      <point x="701" y="215" type="line"/>
      <point x="615" y="215" type="line"/>
      <point x="615" y="174" type="line" smooth="yes"/>
      <point x="615" y="120"/>
      <point x="609" y="80"/>
      <point x="562" y="80" type="curve" smooth="yes"/>
      <point x="553" y="80" type="line" smooth="yes"/>
      <point x="511" y="80"/>
      <point x="510" y="120"/>
      <point x="510" y="174" type="curve" smooth="yes"/>
      <point x="510" y="540" type="line" smooth="yes"/>
      <point x="510" y="594"/>
      <point x="511" y="634"/>
      <point x="553" y="634" type="curve" smooth="yes"/>
      <point x="562" y="634" type="line" smooth="yes"/>
      <point x="602" y="634"/>
      <point x="615" y="594"/>
      <point x="615" y="540" type="curve" smooth="yes"/>
      <point x="615" y="500" type="line"/>
      <point x="701" y="500" type="line"/>
      <point x="701" y="555" type="line" smooth="yes"/>
      <point x="701" y="645"/>
      <point x="658" y="714"/>
      <point x="570" y="714" type="curve" smooth="yes"/>
      <point x="552" y="714" type="line" smooth="yes"/>
      <point x="457" y="714"/>
      <point x="420" y="645"/>
      <point x="420" y="555" type="curve" smooth="yes"/>
      <point x="420" y="402" type="line"/>
      <point x="321" y="402" type="line"/>
      <point x="321" y="555" type="line" smooth="yes"/>
      <point x="321" y="645"/>
      <point x="284" y="714"/>
      <point x="189" y="714" type="curve" smooth="yes"/>
      <point x="171" y="714" type="line" smooth="yes"/>
      <point x="83" y="714"/>
      <point x="40" y="645"/>
      <point x="40" y="555" type="curve" smooth="yes"/>
      <point x="40" y="500" type="line"/>
      <point x="126" y="500" type="line"/>
      <point x="126" y="540" type="line" smooth="yes"/>
      <point x="126" y="594"/>
      <point x="139" y="634"/>
      <point x="179" y="634" type="curve" smooth="yes"/>
      <point x="188" y="634" type="line" smooth="yes"/>
      <point x="230" y="634"/>
      <point x="231" y="594"/>
      <point x="231" y="540" type="curve" smooth="yes"/>
      <point x="231" y="174" type="line" smooth="yes"/>
      <point x="231" y="120"/>
      <point x="230" y="80"/>
      <point x="188" y="80" type="curve" smooth="yes"/>
      <point x="179" y="80" type="line" smooth="yes"/>
      <point x="132" y="80"/>
      <point x="126" y="120"/>
      <point x="126" y="174" type="curve" smooth="yes"/>
      <point x="126" y="215" type="line"/>
      <point x="40" y="215" type="line"/>
      <point x="40" y="159" type="line" smooth="yes"/>
      <point x="40" y="69"/>
      <point x="88" y="0"/>
    </contour>
  </outline>
</glyph>
<glyph name="u16B5E" format="2">
  <advance width="781"/>
  <unicode hex="16B5E"/>
  <outline>
    <contour>
      <point x="171" y="0" type="curve" smooth="yes"/>
      <point x="189" y="0" type="line" smooth="yes"/>
      <point x="283" y="0"/>
      <point x="321" y="69"/>
      <point x="321" y="159" type="curve" smooth="yes"/>
      <point x="321" y="174" type="line"/>
      <point x="420" y="174" type="line"/>
      <point x="420" y="159" type="line" smooth="yes"/>
      <point x="420" y="69"/>
      <point x="468" y="0"/>
      <point x="551" y="0" type="curve" smooth="yes"/>
      <point x="569" y="0" type="line" smooth="yes"/>
      <point x="663" y="0"/>
      <point x="701" y="69"/>
      <point x="701" y="159" type="curve" smooth="yes"/>
      <point x="701" y="714" type="line"/>
      <point x="611" y="714" type="line"/>
      <point x="611" y="174" type="line" smooth="yes"/>
      <point x="611" y="120"/>
      <point x="610" y="80"/>
      <point x="568" y="80" type="curve" smooth="yes"/>
      <point x="559" y="80" type="line" smooth="yes"/>
      <point x="512" y="80"/>
      <point x="506" y="120"/>
      <point x="506" y="174" type="curve" smooth="yes"/>
      <point x="506" y="254" type="line"/>
      <point x="321" y="254" type="line"/>
      <point x="321" y="555" type="line" smooth="yes"/>
      <point x="321" y="645"/>
      <point x="284" y="714"/>
      <point x="189" y="714" type="curve" smooth="yes"/>
      <point x="171" y="714" type="line" smooth="yes"/>
      <point x="83" y="714"/>
      <point x="40" y="645"/>
      <point x="40" y="555" type="curve" smooth="yes"/>
      <point x="40" y="500" type="line"/>
      <point x="126" y="500" type="line"/>
      <point x="126" y="540" type="line" smooth="yes"/>
      <point x="126" y="594"/>
      <point x="139" y="634"/>
      <point x="179" y="634" type="curve" smooth="yes"/>
      <point x="188" y="634" type="line" smooth="yes"/>
      <point x="230" y="634"/>
      <point x="231" y="594"/>
      <point x="231" y="540" type="curve" smooth="yes"/>
      <point x="231" y="174" type="line" smooth="yes"/>
      <point x="231" y="120"/>
      <point x="230" y="80"/>
      <point x="188" y="80" type="curve" smooth="yes"/>
      <point x="179" y="80" type="line" smooth="yes"/>
      <point x="132" y="80"/>
      <point x="126" y="120"/>
      <point x="126" y="174" type="curve" smooth="yes"/>
      <point x="126" y="215" type="line"/>
      <point x="40" y="215" type="line"/>
      <point x="40" y="159" type="line" smooth="yes"/>
      <point x="40" y="69"/>
      <point x="88" y="0"/>
    </contour>
  </outline>
</glyph>
<glyph name="u16B60" format="2">
  <advance width="640"/>
  <unicode hex="16B60"/>
  <outline>
    <contour>
      <point x="80" y="0" type="line"/>
      <point x="170" y="0" type="line"/>
      <point x="170" y="80" type="line"/>
      <point x="470" y="521" type="line"/>
      <point x="470" y="0" type="line"/>
      <point x="560" y="0" type="line"/>
      <point x="560" y="714" type="line"/>
      <point x="470" y="714" type="line"/>
      <point x="470" y="645" type="line"/>
      <point x="170" y="201" type="line"/>
      <point x="170" y="491" type="line"/>
      <point x="186" y="484"/>
      <point x="203" y="480"/>
      <point x="222" y="480" type="curve" smooth="yes"/>
      <point x="290" y="480"/>
      <point x="349" y="534"/>
      <point x="349" y="603" type="curve" smooth="yes"/>
      <point x="349" y="672"/>
      <point x="290" y="725"/>
      <point x="222" y="725" type="curve" smooth="yes"/>
      <point x="105" y="725"/>
      <point x="80" y="620"/>
      <point x="80" y="564" type="curve" smooth="yes"/>
    </contour>
    <contour>
      <point x="222" y="550" type="curve" smooth="yes"/>
      <point x="192" y="550"/>
      <point x="170" y="572"/>
      <point x="170" y="603" type="curve" smooth="yes"/>
      <point x="170" y="634"/>
      <point x="192" y="655"/>
      <point x="222" y="655" type="curve" smooth="yes"/>
      <point x="252" y="655"/>
      <point x="275" y="635"/>
      <point x="275" y="603" type="curve" smooth="yes"/>
      <point x="275" y="572"/>
      <point x="252" y="550"/>
    </contour>
  </outline>
</glyph>
<glyph name="u16B61" format="2">
  <advance width="721"/>
  <unicode hex="16B61"/>
  <outline>
    <contour>
      <point x="410" y="0" type="line"/>
      <point x="500" y="0" type="line"/>
      <point x="500" y="354" type="line"/>
      <point x="641" y="354" type="line"/>
      <point x="641" y="434" type="line"/>
      <point x="500" y="434" type="line"/>
      <point x="500" y="634" type="line"/>
      <point x="641" y="634" type="line"/>
      <point x="641" y="714" type="line"/>
      <point x="410" y="714" type="line"/>
    </contour>
    <contour>
      <point x="90" y="0" type="line"/>
      <point x="180" y="0" type="line"/>
      <point x="180" y="714" type="line"/>
      <point x="90" y="714" type="line"/>
    </contour>
    <contour>
      <point x="260" y="0" type="line"/>
      <point x="330" y="0" type="line"/>
      <point x="330" y="714" type="line"/>
      <point x="260" y="714" type="line"/>
    </contour>
  </outline>
</glyph>
<glyph name="u16B63" format="2">
  <advance width="636"/>
  <unicode hex="16B63"/>
  <outline>
    <contour>
      <point x="50" y="0" type="line"/>
      <point x="586" y="0" type="line"/>
      <point x="586" y="80" type="line"/>
      <point x="306" y="80" type="line"/>
      <point x="306" y="483" type="line" smooth="yes"/>
      <point x="306" y="571"/>
      <point x="306" y="643"/>
      <point x="399" y="643" type="curve" smooth="yes"/>
      <point x="494" y="643"/>
      <point x="496" y="580"/>
      <point x="496" y="482" type="curve" smooth="yes"/>
      <point x="496" y="459" type="line"/>
      <point x="586" y="459" type="line"/>
      <point x="586" y="481" type="line" smooth="yes"/>
      <point x="586" y="640"/>
      <point x="557" y="725"/>
      <point x="404" y="725" type="curve" smooth="yes"/>
      <point x="285" y="725"/>
      <point x="239" y="673"/>
      <point x="223" y="584" type="curve"/>
      <point x="87" y="714" type="line"/>
      <point x="30" y="656" type="line"/>
      <point x="216" y="477" type="line"/>
      <point x="216" y="80" type="line"/>
      <point x="50" y="80" type="line"/>
    </contour>
  </outline>
</glyph>
<glyph name="u16B64" format="2">
  <advance width="589"/>
  <unicode hex="16B64"/>
  <outline>
    <contour>
      <point x="90" y="0" type="line"/>
      <point x="180" y="0" type="line"/>
      <point x="180" y="152" type="line"/>
      <point x="207" y="149"/>
      <point x="239" y="148"/>
      <point x="269" y="148" type="curve" smooth="yes"/>
      <point x="446" y="148"/>
      <point x="539" y="241"/>
      <point x="539" y="341" type="curve" smooth="yes"/>
      <point x="539" y="442"/>
      <point x="446" y="533"/>
      <point x="269" y="533" type="curve" smooth="yes"/>
      <point x="238" y="533"/>
      <point x="207" y="530"/>
      <point x="180" y="523" type="curve"/>
      <point x="180" y="634" type="line"/>
      <point x="444" y="634" type="line"/>
      <point x="444" y="714" type="line"/>
      <point x="90" y="714" type="line"/>
      <point x="90" y="444" type="line"/>
      <point x="180" y="444" type="line"/>
      <point x="192" y="450"/>
      <point x="236" y="454"/>
      <point x="264" y="454" type="curve" smooth="yes"/>
      <point x="377" y="454"/>
      <point x="450" y="412"/>
      <point x="450" y="340" type="curve" smooth="yes"/>
      <point x="450" y="270"/>
      <point x="372" y="227"/>
      <point x="260" y="227" type="curve" smooth="yes"/>
      <point x="212" y="227"/>
      <point x="193" y="233"/>
      <point x="180" y="237" type="curve"/>
      <point x="90" y="237" type="line"/>
    </contour>
  </outline>
</glyph>
<glyph name="u16B68" format="2">
  <advance width="610"/>
  <unicode hex="16B68"/>
  <outline>
    <contour>
      <point x="50" y="0" type="line"/>
      <point x="560" y="0" type="line"/>
      <point x="560" y="80" type="line"/>
      <point x="356" y="80" type="line"/>
      <point x="356" y="528" type="line"/>
      <point x="485" y="412" type="line"/>
      <point x="528" y="478" type="line"/>
      <point x="359" y="634" type="line"/>
      <point x="560" y="634" type="line"/>
      <point x="560" y="714" type="line"/>
      <point x="50" y="714" type="line"/>
      <point x="50" y="634" type="line"/>
      <point x="266" y="634" type="line"/>
      <point x="266" y="80" type="line"/>
      <point x="50" y="80" type="line"/>
    </contour>
  </outline>
</glyph>
<glyph name="u16B6A" format="2">
  <advance width="610"/>
  <unicode hex="16B6A"/>
  <outline>
    <contour>
      <point x="295" y="-11" type="line"/>
      <point x="327" y="-11" type="line"/>
      <point x="540" y="193" type="line"/>
      <point x="540" y="295" type="line"/>
      <point x="356" y="119" type="line"/>
      <point x="356" y="634" type="line"/>
      <point x="560" y="634" type="line"/>
      <point x="560" y="714" type="line"/>
      <point x="50" y="714" type="line"/>
      <point x="50" y="634" type="line"/>
      <point x="266" y="634" type="line"/>
      <point x="266" y="119" type="line"/>
      <point x="82" y="295" type="line"/>
      <point x="82" y="193" type="line"/>
    </contour>
    <contour>
      <point x="310" y="780" type="curve" smooth="yes"/>
      <point x="350" y="780"/>
      <point x="383" y="812"/>
      <point x="383" y="852" type="curve" smooth="yes"/>
      <point x="383" y="892"/>
      <point x="350" y="925"/>
      <point x="310" y="925" type="curve" smooth="yes"/>
      <point x="270" y="925"/>
      <point x="238" y="892"/>
      <point x="238" y="852" type="curve" smooth="yes"/>
      <point x="238" y="812"/>
      <point x="270" y="780"/>
    </contour>
  </outline>
</glyph>
<glyph name="u16B6D" format="2">
  <advance width="690"/>
  <unicode hex="16B6D"/>
  <outline>
    <contour>
      <point x="90" y="0" type="line"/>
      <point x="180" y="0" type="line"/>
      <point x="510" y="346" type="line"/>
      <point x="510" y="0" type="line"/>
      <point x="600" y="0" type="line"/>
      <point x="600" y="714" type="line"/>
      <point x="510" y="714" type="line"/>
      <point x="386" y="579" type="line"/>
      <point x="440" y="527" type="line"/>
      <point x="510" y="605" type="line"/>
      <point x="510" y="456" type="line"/>
      <point x="180" y="109" type="line"/>
      <point x="180" y="714" type="line"/>
      <point x="90" y="714" type="line"/>
    </contour>
  </outline>
</glyph>
<glyph name="u16B70" format="2">
  <advance width="680"/>
  <unicode hex="16B70"/>
  <outline>
    <contour>
      <point x="90" y="0" type="line"/>
      <point x="180" y="0" type="line"/>
      <point x="180" y="260" type="line"/>
      <point x="630" y="260" type="line"/>
      <point x="630" y="340" type="line"/>
      <point x="180" y="340" type="line"/>
      <point x="180" y="600" type="line"/>
      <point x="90" y="600" type="line"/>
    </contour>
  </outline>
</glyph>
<glyph name="u16B72" format="2">
  <advance width="780"/>
  <unicode hex="16B72"/>
  <outline>
    <contour>
      <point x="90" y="0" type="line"/>
      <point x="180" y="0" type="line"/>
      <point x="180" y="600" type="line"/>
      <point x="90" y="600" type="line"/>
    </contour>
    <contour>
      <point x="260" y="90" type="line"/>
      <point x="730" y="90" type="line"/>
      <point x="730" y="170" type="line"/>
      <point x="260" y="170" type="line"/>
    </contour>
    <contour>
      <point x="260" y="430" type="line"/>
      <point x="730" y="430" type="line"/>
      <point x="730" y="510" type="line"/>
      <point x="260" y="510" type="line"/>
    </contour>
  </outline>
</glyph>
<glyph name="u16B73" format="2">
  <advance width="749"/>
  <unicode hex="16B73"/>
  <outline>
    <contour>
      <point x="324" y="0" type="line"/>
      <point x="414" y="0" type="line"/>
      <point x="414" y="330" type="line"/>
      <point x="569" y="330" type="line"/>
      <point x="569" y="0" type="line"/>
      <point x="659" y="0" type="line"/>
      <point x="659" y="410" type="line"/>
      <point x="414" y="410" type="line"/>
      <point x="414" y="634" type="line"/>
      <point x="569" y="634" type="line"/>
      <point x="569" y="504" type="line"/>
      <point x="659" y="504" type="line"/>
      <point x="659" y="714" type="line"/>
      <point x="324" y="714" type="line"/>
      <point x="324" y="410" type="line"/>
      <point x="170" y="410" type="line"/>
      <point x="170" y="714" type="line"/>
      <point x="80" y="714" type="line"/>
      <point x="80" y="330" type="line"/>
      <point x="324" y="330" type="line"/>
    </contour>
  </outline>
</glyph>
<glyph name="u16B74" format="2">
  <advance width="780"/>
  <unicode hex="16B74"/>
  <outline>
    <contour>
      <point x="512" y="-11" type="curve" smooth="yes"/>
      <point x="669" y="-11"/>
      <point x="697" y="82"/>
      <point x="700" y="215" type="curve"/>
      <point x="610" y="215" type="line"/>
      <point x="608" y="126"/>
      <point x="597" y="71"/>
      <point x="517" y="71" type="curve" smooth="yes"/>
      <point x="432" y="71"/>
      <point x="420" y="134"/>
      <point x="420" y="250" type="curve" smooth="yes"/>
      <point x="420" y="464" type="line" smooth="yes"/>
      <point x="420" y="580"/>
      <point x="432" y="643"/>
      <point x="517" y="643" type="curve" smooth="yes"/>
      <point x="599" y="643"/>
      <point x="609" y="593"/>
      <point x="610" y="500" type="curve"/>
      <point x="700" y="500" type="line"/>
      <point x="697" y="634"/>
      <point x="670" y="725"/>
      <point x="512" y="725" type="curve" smooth="yes"/>
      <point x="354" y="725"/>
      <point x="330" y="620"/>
      <point x="330" y="461" type="curve" smooth="yes"/>
      <point x="330" y="253" type="line" smooth="yes"/>
      <point x="330" y="94"/>
      <point x="354" y="-11"/>
    </contour>
    <contour>
      <point x="90" y="0" type="line"/>
      <point x="180" y="0" type="line"/>
      <point x="180" y="714" type="line"/>
      <point x="90" y="714" type="line"/>
    </contour>
    <contour>
      <point x="180" y="0" type="line"/>
      <point x="546" y="360" type="line"/>
      <point x="491" y="423" type="line"/>
      <point x="129" y="61" type="line"/>
    </contour>
  </outline>
</glyph>
<glyph name="u16B77" format="2">
  <advance width="708"/>
  <unicode hex="16B77"/>
  <outline>
    <contour>
      <point x="309" y="0" type="line"/>
      <point x="399" y="0" type="line"/>
      <point x="399" y="383" type="line"/>
      <point x="473" y="383" type="line"/>
      <point x="475" y="234"/>
      <point x="506" y="138"/>
      <point x="658" y="138" type="curve"/>
      <point x="658" y="220" type="line"/>
      <point x="573" y="220"/>
      <point x="563" y="283"/>
      <point x="563" y="399" type="curve" smooth="yes"/>
      <point x="563" y="453" type="line" smooth="yes"/>
      <point x="563" y="569"/>
      <point x="573" y="632"/>
      <point x="658" y="632" type="curve"/>
      <point x="658" y="714" type="line"/>
      <point x="504" y="714"/>
      <point x="474" y="614"/>
      <point x="473" y="463" type="curve"/>
      <point x="235" y="463" type="line"/>
      <point x="233" y="614"/>
      <point x="203" y="714"/>
      <point x="50" y="714" type="curve"/>
      <point x="50" y="632" type="line"/>
      <point x="135" y="632"/>
      <point x="145" y="569"/>
      <point x="145" y="453" type="curve" smooth="yes"/>
      <point x="145" y="399" type="line" smooth="yes"/>
      <point x="145" y="283"/>
      <point x="135" y="220"/>
      <point x="50" y="220" type="curve"/>
      <point x="50" y="138" type="line"/>
      <point x="201" y="138"/>
      <point x="232" y="234"/>
      <point x="235" y="383" type="curve"/>
      <point x="309" y="383" type="line"/>
    </contour>
  </outline>
</glyph>
<glyph name="u16B7F" format="2">
  <advance width="848"/>
  <unicode hex="16B7F"/>
  <outline>
    <contour>
      <point x="490" y="0" type="line"/>
      <point x="580" y="0" type="line"/>
      <point x="580" y="205" type="line"/>
      <point x="783" y="0" type="line"/>
      <point x="838" y="59" type="line"/>
      <point x="580" y="318" type="line"/>
      <point x="580" y="395" type="line"/>
      <point x="838" y="655" type="line"/>
      <point x="783" y="714" type="line"/>
      <point x="580" y="509" type="line"/>
      <point x="580" y="714" type="line"/>
      <point x="490" y="714" type="line"/>
    </contour>
    <contour>
      <point x="65" y="0" type="line"/>
      <point x="268" y="205" type="line"/>
      <point x="268" y="0" type="line"/>
      <point x="358" y="0" type="line"/>
      <point x="358" y="714" type="line"/>
      <point x="268" y="714" type="line"/>
      <point x="268" y="509" type="line"/>
      <point x="65" y="714" type="line"/>
      <point x="10" y="655" type="line"/>
      <point x="268" y="395" type="line"/>
      <point x="268" y="318" type="line"/>
      <point x="10" y="59" type="line"/>
    </contour>
  </outline>
</glyph>
<glyph name="u16B81" format="2">
  <advance width="669"/>
  <unicode hex="16B81"/>
  <outline>
    <contour>
      <point x="90" y="-23" type="line"/>
      <point x="334" y="190" type="line"/>
      <point x="578" y="-23" type="line"/>
      <point x="578" y="79" type="line"/>
      <point x="396" y="238" type="line"/>
      <point x="465" y="298" type="line"/>
      <point x="578" y="199" type="line"/>
      <point x="578" y="301" type="line"/>
      <point x="396" y="460" type="line"/>
      <point x="463" y="519" type="line"/>
      <point x="578" y="419" type="line"/>
      <point x="578" y="521" type="line"/>
      <point x="522" y="570" type="line"/>
      <point x="589" y="629" type="line"/>
      <point x="538" y="684" type="line"/>
      <point x="465" y="620" type="line"/>
      <point x="345" y="725" type="line"/>
      <point x="323" y="725" type="line"/>
      <point x="203" y="620" type="line"/>
      <point x="131" y="684" type="line"/>
      <point x="80" y="629" type="line"/>
      <point x="146" y="570" type="line"/>
      <point x="90" y="521" type="line"/>
      <point x="90" y="419" type="line"/>
      <point x="205" y="519" type="line"/>
      <point x="272" y="460" type="line"/>
      <point x="90" y="301" type="line"/>
      <point x="90" y="199" type="line"/>
      <point x="203" y="298" type="line"/>
      <point x="272" y="238" type="line"/>
      <point x="90" y="79" type="line"/>
    </contour>
    <contour>
      <point x="335" y="283" type="line"/>
      <point x="260" y="347" type="line"/>
      <point x="334" y="412" type="line"/>
      <point x="408" y="347" type="line"/>
    </contour>
    <contour>
      <point x="335" y="505" type="line"/>
      <point x="261" y="568" type="line"/>
      <point x="334" y="632" type="line"/>
      <point x="407" y="568" type="line"/>
    </contour>
  </outline>
</glyph>
<glyph name="u16B82" format="2">
  <advance width="790"/>
  <unicode hex="16B82"/>
  <outline>
    <contour>
      <point x="610" y="0" type="line"/>
      <point x="700" y="0" type="line"/>
      <point x="700" y="714" type="line"/>
      <point x="520" y="714" type="line"/>
      <point x="520" y="843" type="line"/>
      <point x="440" y="843" type="line"/>
      <point x="440" y="634" type="line"/>
      <point x="610" y="634" type="line"/>
    </contour>
    <contour>
      <point x="90" y="0" type="line"/>
      <point x="180" y="0" type="line"/>
      <point x="180" y="634" type="line"/>
      <point x="350" y="634" type="line"/>
      <point x="350" y="843" type="line"/>
      <point x="270" y="843" type="line"/>
      <point x="270" y="714" type="line"/>
      <point x="90" y="714" type="line"/>
    </contour>
    <contour>
      <point x="388" y="169" type="curve" smooth="yes"/>
      <point x="487" y="169"/>
      <point x="538" y="229"/>
      <point x="538" y="368" type="curve"/>
      <point x="458" y="368" type="line"/>
      <point x="458" y="270"/>
      <point x="437" y="245"/>
      <point x="389" y="245" type="curve" smooth="yes"/>
      <point x="339" y="245"/>
      <point x="318" y="270"/>
      <point x="318" y="368" type="curve"/>
      <point x="238" y="368" type="line"/>
      <point x="238" y="229"/>
      <point x="289" y="169"/>
    </contour>
  </outline>
</glyph>
<glyph name="u16B83" format="2">
  <advance width="757"/>
  <unicode hex="16B83"/>
  <outline>
    <contour>
      <point x="454" y="0" type="line"/>
      <point x="674" y="0" type="line"/>
      <point x="674" y="80" type="line"/>
      <point x="544" y="80" type="line"/>
      <point x="544" y="554" type="line"/>
      <point x="454" y="554" type="line"/>
    </contour>
    <contour>
      <point x="83" y="0" type="line"/>
      <point x="303" y="0" type="line"/>
      <point x="303" y="554" type="line"/>
      <point x="213" y="554" type="line"/>
      <point x="213" y="80" type="line"/>
      <point x="83" y="80" type="line"/>
    </contour>
    <contour>
      <point x="50" y="540" type="line"/>
      <point x="130" y="540" type="line"/>
      <point x="130" y="560" type="line" smooth="yes"/>
      <point x="130" y="614"/>
      <point x="153" y="634"/>
      <point x="210" y="634" type="curve" smooth="yes"/>
      <point x="547" y="634" type="line" smooth="yes"/>
      <point x="604" y="634"/>
      <point x="627" y="614"/>
      <point x="627" y="560" type="curve" smooth="yes"/>
      <point x="627" y="540" type="line"/>
      <point x="707" y="540" type="line"/>
      <point x="707" y="575" type="line" smooth="yes"/>
      <point x="707" y="665"/>
      <point x="654" y="714"/>
      <point x="550" y="714" type="curve" smooth="yes"/>
      <point x="207" y="714" type="line" smooth="yes"/>
      <point x="103" y="714"/>
      <point x="50" y="665"/>
      <point x="50" y="575" type="curve" smooth="yes"/>
    </contour>
  </outline>
</glyph>
<glyph name="u16B86" format="2">
  <advance width="667"/>
  <unicode hex="16B86"/>
  <outline>
    <contour>
      <point x="288" y="0" type="line"/>
      <point x="378" y="0" type="line"/>
      <point x="378" y="254" type="line"/>
      <point x="619" y="254" type="line"/>
      <point x="619" y="334" type="line"/>
      <point x="378" y="334" type="line"/>
      <point x="378" y="384" type="line"/>
      <point x="499" y="490" type="line"/>
      <point x="619" y="388" type="line"/>
      <point x="619" y="490" type="line"/>
      <point x="558" y="542" type="line"/>
      <point x="627" y="602" type="line"/>
      <point x="576" y="657" type="line"/>
      <point x="501" y="591" type="line"/>
      <point x="345" y="725" type="line"/>
      <point x="323" y="725" type="line"/>
      <point x="166" y="591" type="line"/>
      <point x="91" y="657" type="line"/>
      <point x="40" y="602" type="line"/>
      <point x="109" y="542" type="line"/>
      <point x="48" y="490" type="line"/>
      <point x="48" y="388" type="line"/>
      <point x="168" y="490" type="line"/>
      <point x="288" y="385" type="line"/>
      <point x="288" y="334" type="line"/>
      <point x="48" y="334" type="line"/>
      <point x="48" y="254" type="line"/>
      <point x="288" y="254" type="line"/>
    </contour>
    <contour>
      <point x="334" y="444" type="line"/>
      <point x="225" y="539" type="line"/>
      <point x="334" y="632" type="line"/>
      <point x="442" y="539" type="line"/>
    </contour>
  </outline>
</glyph>
<glyph name="u16B88" format="2">
  <advance width="768"/>
  <unicode hex="16B88"/>
  <outline>
    <contour>
      <point x="90" y="0" type="line"/>
      <point x="180" y="0" type="line"/>
      <point x="180" y="634" type="line"/>
      <point x="344" y="634" type="line"/>
      <point x="344" y="0" type="line"/>
      <point x="424" y="0" type="line"/>
      <point x="424" y="634" type="line"/>
      <point x="588" y="634" type="line"/>
      <point x="588" y="0" type="line"/>
      <point x="678" y="0" type="line"/>
      <point x="678" y="714" type="line"/>
      <point x="90" y="714" type="line"/>
    </contour>
    <contour>
      <point x="212" y="800" type="line"/>
      <point x="557" y="800" type="line"/>
      <point x="557" y="874" type="line"/>
      <point x="212" y="874" type="line"/>
    </contour>
  </outline>
</glyph>
<glyph name="u16B8D" format="2">
  <advance width="693"/>
  <unicode hex="16B8D"/>
  <outline>
    <contour>
      <point x="170" y="0" type="line"/>
      <point x="260" y="0" type="line"/>
      <point x="260" y="342" type="line"/>
      <point x="433" y="342" type="line"/>
      <point x="433" y="0" type="line"/>
      <point x="523" y="0" type="line"/>
      <point x="523" y="634" type="line"/>
      <point x="673" y="634" type="line"/>
      <point x="673" y="714" type="line"/>
      <point x="433" y="714" type="line"/>
      <point x="433" y="422" type="line"/>
      <point x="260" y="422" type="line"/>
      <point x="260" y="714" type="line"/>
      <point x="20" y="714" type="line"/>
      <point x="20" y="634" type="line"/>
      <point x="170" y="634" type="line"/>
    </contour>
    <contour>
      <point x="174" y="800" type="line"/>
      <point x="519" y="800" type="line"/>
      <point x="519" y="874" type="line"/>
      <point x="174" y="874" type="line"/>
    </contour>
  </outline>
</glyph>
<glyph name="u16B8F" format="2">
  <advance width="670"/>
  <unicode hex="16B8F"/>
  <outline>
    <contour>
      <point x="501" y="0" type="line"/>
      <point x="603" y="0" type="line"/>
      <point x="444" y="245" type="line"/>
      <point x="630" y="245" type="line"/>
      <point x="630" y="315" type="line"/>
      <point x="398" y="315" type="line"/>
      <point x="369" y="360" type="line"/>
      <point x="630" y="360" type="line"/>
      <point x="630" y="430" type="line"/>
      <point x="414" y="430" type="line"/>
      <point x="630" y="714" type="line"/>
      <point x="535" y="714" type="line"/>
      <point x="321" y="434" type="line"/>
      <point x="140" y="714" type="line"/>
      <point x="40" y="714" type="line"/>
      <point x="223" y="430" type="line"/>
      <point x="40" y="430" type="line"/>
      <point x="40" y="360" type="line"/>
      <point x="268" y="360" type="line"/>
      <point x="297" y="315" type="line"/>
      <point x="40" y="315" type="line"/>
      <point x="40" y="245" type="line"/>
      <point x="342" y="245" type="line"/>
    </contour>
  </outline>
</glyph>
